<svg xmlns="http://www.w3.org/2000/svg" viewBox="0 0 200 200" width="200" height="200">
  <defs>
    <linearGradient id="bg" x1="0" y1="0" x2="0" y2="1">
      <stop offset="0" stop-color="#0f1f1a"/>
      <stop offset="1" stop-color="#0a141a"/>
    </linearGradient>
    <linearGradient id="leaf" x1="0" y1="0" x2="1" y2="1">
      <stop offset="0" stop-color="#34d399"/>
      <stop offset="1" stop-color="#059669"/>
    </linearGradient>
  </defs>
  <rect width="200" height="200" fill="url(#bg)"/>
  <rect x="1" y="1" width="198" height="198" fill="none" stroke="#1e3a32" stroke-width="2" rx="8"/>
  <g transform="translate(100,90)">
    <ellipse cx="0" cy="35" rx="45" ry="6" fill="#0a1612" opacity="0.6"/>
    <path d="M0,30 Q-30,10 -34,-10 Q-38,-32 -16,-32 Q4,-30 0,-10 Z" fill="url(#leaf)" opacity="0.95"/>
    <path d="M0,30 Q30,10 34,-10 Q38,-32 16,-32 Q-4,-30 0,-10 Z" fill="url(#leaf)" opacity="0.85"/>
    <path d="M0,32 Q-12,5 0,-25 Q12,5 0,32 Z" fill="#10b981" opacity="0.7"/>
    <rect x="-1.5" y="25" width="3" height="22" rx="1" fill="#065f46"/>
    <line x1="-22" y1="-8" x2="-3" y2="20" stroke="#064e3b" stroke-width="0.6" opacity="0.4"/>
    <line x1="22" y1="-8" x2="3" y2="20" stroke="#064e3b" stroke-width="0.6" opacity="0.4"/>
  </g>
  <g transform="translate(155,45)">
    <circle r="14" fill="#10b981" opacity="0.95"/>
    <circle r="14" fill="none" stroke="#0f1f1a" stroke-width="2"/>
    <path d="M-6,0 L6,0 M0,-6 L0,6" stroke="#fff" stroke-width="2.5" stroke-linecap="round"/>
  </g>
  <text x="100" y="170" text-anchor="middle" font-family="-apple-system,system-ui,sans-serif" font-size="11" font-weight="600" fill="#a7f3d0" letter-spacing="1">Agregá una foto</text>
  <text x="100" y="184" text-anchor="middle" font-family="-apple-system,system-ui,sans-serif" font-size="9" fill="#34d399" opacity="0.7" letter-spacing="0.5">verás cómo crece tu planta</text>
</svg>
