<svg xmlns="http://www.w3.org/2000/svg" width="800" height="800" viewBox="0 0 800 800">
  <defs>
    <style>
      .c { fill: none; stroke: rgba(6,182,212,0.14); stroke-width: 0.9; stroke-linecap: round; }
      .f { fill: none; stroke: rgba(6,182,212,0.24); stroke-width: 1.5; stroke-linecap: round; stroke-linejoin: round; }
      .d { fill: rgba(6,182,212,0.09); stroke: none; }
      .e { fill: rgba(6,182,212,0.16); stroke: none; }
    </style>
  </defs>

  <!-- ═══ CIRCUITOS PCB ═══ -->
  <g class="c">
    <path d="M0 400h80l6-6v-70l6-6h50l6 6v40l6 6h30"/>
    <path d="M400 0v75l-6 6h-55l-6 6v45"/>
    <path d="M800 370h-70l-6 6v60l-6 6h-45"/>
    <path d="M370 800v-65l6-6h50l6-6v-40"/>
    <path d="M200 200h50l6 6v50"/>
    <path d="M600 580h-45l-6-6v-45"/>
    <path d="M140 600l6-6h40l6-6v-35"/>
    <path d="M650 200l-6 6v40l-6 6h-40"/>
    <!-- Diagonales tech -->
    <path d="M250 130l40 40m60-40l-40 40"/>
    <path d="M500 650l35-35m50 35l-35-35"/>
  </g>
  <g class="d">
    <circle cx="80" cy="400" r="4"/><circle cx="400" cy="75" r="4"/>
    <circle cx="730" cy="376" r="4"/><circle cx="376" cy="735" r="4"/>
    <circle cx="200" cy="200" r="3"/><circle cx="600" cy="580" r="3"/>
    <circle cx="146" cy="600" r="3"/><circle cx="650" cy="200" r="3"/>
    <circle cx="256" cy="256" r="2.5"/><circle cx="555" cy="535" r="2.5"/>
  </g>

  <!-- ═══ OSO ANDINO (Tremarctos ornatus) ═══ arriba-izq -->
  <g class="f" transform="translate(65,55)">
    <!-- Cuerpo sentado -->
    <path d="M50 110c-18-2-32-15-36-35c-3-14 0-28 8-38"/>
    <path d="M100 110c18-2 32-15 36-35c3-14 0-28-8-38"/>
    <!-- Torso -->
    <path d="M22 37c-2 12 0 28 6 42c4 10 12 22 22 31"/>
    <path d="M128 37c2 12 0 28-6 42c-4 10-12 22-22 31"/>
    <!-- Cabeza grande y redonda -->
    <path d="M22 37c2-12 10-22 20-27c8-4 18-6 28-4c10 2 20 8 26 18c5 8 7 18 5 28"/>
    <!-- Orejas redondas pequeñas -->
    <path d="M35 12c-4-8-2-16 5-19c7-3 14 1 15 8"/>
    <path d="M115 12c4-8 2-16-5-19c-7-3-14 1-15 8"/>
    <!-- Anteojos — marca facial del oso de anteojos -->
    <path d="M45 30c-6-2-12 2-13 8c-1 6 3 11 9 12c4 1 8-1 10-4"/>
    <path d="M105 30c6-2 12 2 13 8c1 6-3 11-9 12c-4 1-8-1-10-4"/>
    <!-- Hocico -->
    <path d="M60 48c-4 2-6 6-5 10c1 5 6 8 12 8c6 0 11-3 12-8c1-4-1-8-5-10"/>
    <!-- Nariz -->
    <ellipse cx="75" cy="52" rx="4" ry="3" class="e"/>
    <!-- Ojos dentro de los anteojos -->
    <circle cx="50" cy="36" r="2.5" class="e"/>
    <circle cx="100" cy="36" r="2.5" class="e"/>
    <!-- Garras delanteras -->
    <path d="M38 108c-3 4-2 10 2 13c3 2 7 1 9-2"/>
    <path d="M112 108c3 4 2 10-2 13c-3 2-7 1-9-2"/>
    <!-- Patas traseras -->
    <path d="M50 110c-2 6 0 12 5 14l8 2"/>
    <path d="M100 110c2 6 0 12-5 14l-8 2"/>
  </g>

  <!-- ═══ MAZORCA DE MAÍZ ═══ arriba-der -->
  <g class="f" transform="translate(560,50)">
    <!-- Forma de la mazorca -->
    <path d="M40 25c-12-2-20 10-22 28c-2 20 0 45 5 60c4 12 12 20 22 22c10-2 18-10 22-22c5-15 7-40 5-60c-2-18-10-30-22-28z"/>
    <!-- Granos — filas curvas -->
    <path d="M22 40c10-3 25-3 36 0"/>
    <path d="M20 52c12-3 28-3 40 0"/>
    <path d="M19 64c12-3 30-3 42 0"/>
    <path d="M20 76c12-3 28-3 40 0"/>
    <path d="M22 88c10-3 25-3 36 0"/>
    <path d="M25 100c8-2 20-2 30 0"/>
    <!-- Costillas verticales -->
    <path d="M32 30c-1 20 0 55 3 80"/>
    <path d="M48 28c1 20 0 55-3 80"/>
    <!-- Hojas de la tusa -->
    <path d="M18 28c-10-8-22-10-28-2c-4 6-2 14 5 18"/>
    <path d="M62 28c10-8 22-10 28-2c4 6 2 14-5 18"/>
    <path d="M15 20c-14-12-26-10-30 0c-3 6 0 14 8 18"/>
    <path d="M65 20c14-12 26-10 30 0c3 6 0 14-8 18"/>
    <!-- Pelos del maíz arriba -->
    <path d="M35 22c-2-10-6-18-12-22"/>
    <path d="M40 20c0-12 2-20 0-28"/>
    <path d="M45 22c2-10 6-18 12-22"/>
  </g>

  <!-- ═══ BORUGO (Cuniculus paca) ═══ abajo-izq -->
  <g class="f" transform="translate(55,530)">
    <!-- Cuerpo ovalado grande -->
    <path d="M40 50c-6-18 4-38 25-44c16-4 40-2 55 8c14 10 22 25 20 42c-2 16-14 28-30 32c-18 5-40 2-55-8c-12-8-18-18-15-30z"/>
    <!-- Cabeza -->
    <path d="M28 40c-8-4-18-2-24 6c-5 7-5 16 0 22c4 5 12 8 20 6"/>
    <!-- Ojo grande -->
    <circle cx="12" cy="48" r="4" class="e"/>
    <!-- Oreja redondeada -->
    <path d="M18 32c-2-6 2-12 8-14c5-2 10 0 12 5"/>
    <!-- Bigotes -->
    <path d="M4 54l-12-2m12 5l-14 1m12 4l-12 4"/>
    <!-- Hocico -->
    <path d="M2 56c-3 0-5-3-4-6c1-2 3-3 5-2"/>
    <!-- Manchas laterales (patrón de puntos/franjas) -->
    <circle cx="55" cy="35" r="2" class="d"/>
    <circle cx="65" cy="30" r="2" class="d"/>
    <circle cx="75" cy="33" r="2" class="d"/>
    <circle cx="85" cy="38" r="2" class="d"/>
    <circle cx="58" cy="48" r="2" class="d"/>
    <circle cx="68" cy="45" r="2" class="d"/>
    <circle cx="78" cy="48" r="2" class="d"/>
    <circle cx="88" cy="52" r="2" class="d"/>
    <circle cx="62" cy="60" r="2" class="d"/>
    <circle cx="72" cy="58" r="2" class="d"/>
    <circle cx="82" cy="62" r="2" class="d"/>
    <!-- Patas cortas y fuertes -->
    <path d="M45 82c-2 8 0 14 5 16l6-1"/>
    <path d="M65 86c-1 8 1 14 6 15l6-2"/>
    <path d="M90 84c1 8-1 14-5 16l-6-1"/>
    <path d="M110 78c2 7 0 14-4 16l-6-1"/>
    <!-- Cola casi inexistente -->
    <path d="M118 58c4 1 7 0 8-3"/>
  </g>

  <!-- ═══ PAVA ANDINA (Penelope montagnii) ═══ der-medio -->
  <g class="f" transform="translate(560,280)">
    <!-- Cuerpo robusto -->
    <path d="M30 65c-8-15-4-35 10-45c12-8 30-8 45 0c12 7 18 22 14 38c-3 14-14 25-30 28c-14 2-28-4-39-21z"/>
    <!-- Cuello largo y elegante -->
    <path d="M30 35c-6-10-10-25-8-40c1-10 5-18 12-22"/>
    <path d="M42 35c-4-10-6-25-4-38c1-8 4-16 10-20"/>
    <!-- Cabeza pequeña -->
    <path d="M34-27c-2-6 2-12 8-14c7-2 14 2 16 9c1 5-1 10-5 13c-5 3-11 3-16 0"/>
    <!-- Ojo -->
    <circle cx="42" cy="-25" r="2.5" class="e"/>
    <!-- Pico curvo -->
    <path d="M32-28c-4-1-8 0-10 3c-2 3 0 6 3 7l7-2"/>
    <!-- Copete / Cresta -->
    <path d="M44-40c3-6 8-10 14-10c4 0 7 3 6 7"/>
    <path d="M48-38c2-8 6-14 12-14"/>
    <!-- Papada roja (gular) -->
    <path d="M36-14c-4 4-5 10-2 14c2 3 5 4 8 2"/>
    <!-- Cola larga abanico -->
    <path d="M85 62c12 8 22 22 26 38"/>
    <path d="M82 68c10 10 18 26 20 42"/>
    <path d="M78 72c8 12 14 28 14 44"/>
    <!-- Plumas de la cola -->
    <path d="M95 80c4 2 6 8 5 14m-10 0c4 4 5 10 3 16m-10 2c3 5 3 12 0 18"/>
    <!-- Patas robustas -->
    <path d="M48 85v22c0 3-1 5-3 6l-6 3l8 0l5-3"/>
    <path d="M65 82v24c0 3 1 5 3 6l6 3l-8 0l-5-3"/>
    <!-- Garras -->
    <path d="M39 116l-5 4m5-4l0 5m5-5l4 4"/>
    <path d="M61 118l-4 4m4-4l1 5m4-5l5 4"/>
  </g>

  <!-- ═══ MORPHO (Morpho menelaus) ═══ centro -->
  <g class="f" transform="translate(320,340)">
    <!-- Abdomen -->
    <path d="M80 55c-1 10-2 25-1 40c1 8 3 12 6 12c3 0 5-4 6-12c1-15 0-30-1-40"/>
    <!-- Tórax -->
    <ellipse cx="85" cy="52" rx="8" ry="10"/>
    <!-- Cabeza -->
    <circle cx="85" cy="38" r="7"/>
    <!-- Ojos compuestos -->
    <circle cx="80" cy="36" r="3" class="e"/>
    <circle cx="90" cy="36" r="3" class="e"/>
    <!-- Antenas elegantes curvas -->
    <path d="M82 32c-8-14-18-24-25-28c-3-2-4 0-3 3"/>
    <path d="M88 32c8-14 18-24 25-28c3-2 4 0 3 3"/>
    <!-- Ala superior izquierda -->
    <path d="M77 50c-10-5-25-15-38-12c-14 3-24 14-26 28c-2 12 4 24 16 30c10 5 22 4 32-2c8-5 14-14 18-25"/>
    <!-- Ala superior derecha -->
    <path d="M93 50c10-5 25-15 38-12c14 3 24 14 26 28c2 12-4 24-16 30c-10 5-22 4-32-2c-8-5-14-14-18-25"/>
    <!-- Ala inferior izquierda -->
    <path d="M78 70c-8 4-20 14-24 28c-4 12 0 24 10 28c8 4 18 0 24-8c5-7 8-16 8-25"/>
    <!-- Ala inferior derecha -->
    <path d="M92 70c8 4 20 14 24 28c4 12 0 24-10 28c-8 4-18 0-24-8c-5-7-8-16-8-25"/>
    <!-- Venas del ala izquierda -->
    <path d="M77 52l-22-6m20 14l-28 10m24 4l-20 16"/>
    <!-- Venas del ala derecha -->
    <path d="M93 52l22-6m-20 14l28 10m-24 4l20 16"/>
    <!-- Venas inferiores -->
    <path d="M80 75l-14 18m30-18l14 18"/>
    <!-- Brillo de las alas (iridiscencia) -->
    <path d="M40 65c5 5 8 15 6 22" style="stroke:rgba(6,182,212,0.06)"/>
    <path d="M130 65c-5 5-8 15-6 22" style="stroke:rgba(6,182,212,0.06)"/>
  </g>

  <!-- ═══ ESCARABAJO HÉRCULES (Dynastes hercules) ═══ abajo-der -->
  <g class="f" transform="translate(545,540)">
    <!-- Élitros (caparazón) -->
    <path d="M30 50c-14 0-24 10-26 25c-2 18 2 40 10 52c6 10 14 14 22 14c8 0 16-4 22-14c8-12 12-34 10-52c-2-15-12-25-26-25z"/>
    <!-- Línea media de los élitros -->
    <path d="M42 52v86"/>
    <!-- Protórax (escudo frontal) -->
    <path d="M20 52c-2-8 2-16 10-20h24c8 4 12 12 10 20"/>
    <!-- Cabeza -->
    <path d="M28 32h28c3 0 5-3 5-6v-4H23v4c0 3 2 6 5 6z"/>
    <!-- CUERNO SUPERIOR — largo, curvo hacia arriba -->
    <path d="M42 22c-1-10 0-22 4-32c3-8 8-14 14-16c4-1 6 1 5 4c-2 5-6 10-10 16"/>
    <!-- Cuerno inferior (del protórax) más corto -->
    <path d="M42 32c-3-8-2-20 2-28c2-5 5-8 8-8"/>
    <!-- Dientes del cuerno superior -->
    <path d="M52-10c2-2 5-2 6 0m-14 8c2-2 5-3 7-1"/>
    <!-- Mandíbulas -->
    <path d="M34 24l-4-4m20 4l4-4"/>
    <!-- Patas — 3 pares con articulaciones -->
    <!-- Par 1 (delantero) -->
    <path d="M20 55l-14-8l-6 2l-4 8"/>
    <path d="M64 55l14-8l6 2l4 8"/>
    <!-- Par 2 (medio) -->
    <path d="M16 75l-16 0l-4 4l-2 10"/>
    <path d="M68 75l16 0l4 4l2 10"/>
    <!-- Par 3 (trasero) -->
    <path d="M20 95l-14 8l-4 4l0 10"/>
    <path d="M64 95l14 8l4 4l0 10"/>
    <!-- Segmentos de las patas -->
    <circle cx="6" cy="47" r="1.5" class="d"/>
    <circle cx="78" cy="47" r="1.5" class="d"/>
    <circle cx="0" cy="75" r="1.5" class="d"/>
    <circle cx="84" cy="75" r="1.5" class="d"/>
    <!-- Textura de los élitros -->
    <path d="M30 65c4-1 10-1 24 0m-26 15c6-1 14-1 28 0m-26 15c5-1 12-1 24 0" style="stroke:rgba(6,182,212,0.05)"/>
  </g>
</svg>
